<?xml version="1.0" encoding="UTF-8" standalone="no"?>
<svg
   xmlns:dc="http://purl.org/dc/elements/1.1/"
   xmlns:cc="http://creativecommons.org/ns#"
   xmlns:rdf="http://www.w3.org/1999/02/22-rdf-syntax-ns#"
   xmlns:svg="http://www.w3.org/2000/svg"
   xmlns="http://www.w3.org/2000/svg"
   viewBox="0 0 540 360"
   height="360"
   width="540"
   xml:space="preserve"
   version="1.1"
   id="svg2"><metadata
     id="metadata8"><rdf:RDF><cc:Work
         rdf:about=""><dc:format>image/svg+xml</dc:format><dc:type
           rdf:resource="http://purl.org/dc/dcmitype/StillImage" /></cc:Work></rdf:RDF></metadata><defs
     id="defs6"><clipPath
       id="clipPath36"
       clipPathUnits="userSpaceOnUse"><path
         id="path38"
         d="m 54,36 334.8,0 0,217.44 -334.8,0 L 54,36 Z" /></clipPath><clipPath
       id="clipPath46"
       clipPathUnits="userSpaceOnUse"><path
         id="path48"
         d="m 54,36 334.8,0 0,217.44 -334.8,0 L 54,36 Z" /></clipPath><clipPath
       id="clipPath56"
       clipPathUnits="userSpaceOnUse"><path
         id="path58"
         d="m 54,36 334.8,0 0,217.44 -334.8,0 L 54,36 Z" /></clipPath><clipPath
       id="clipPath92"
       clipPathUnits="userSpaceOnUse"><path
         id="path94"
         d="m -1016,-351 2676,0 0,1419 -2676,0 0,-1419 z" /></clipPath><clipPath
       id="clipPath120"
       clipPathUnits="userSpaceOnUse"><path
         id="path122"
         d="m -1021,-463 2815,0 0,1696 -2815,0 0,-1696 z" /></clipPath><clipPath
       id="clipPath132"
       clipPathUnits="userSpaceOnUse"><path
         id="path134"
         d="m -1021,-463 2815,0 0,1696 -2815,0 0,-1696 z" /></clipPath></defs><g
     transform="matrix(1.25,0,0,-1.25,0,360)"
     id="g10"><path
       id="path12"
       style="fill:#ffffff;fill-opacity:1;fill-rule:nonzero;stroke:none"
       d="M 0,0 432,0 432,288 0,288 0,0 Z" /><path
       id="path14"
       style="fill:#ffffff;fill-opacity:1;fill-rule:nonzero;stroke:none"
       d="m 54,36 334.8,0 0,217.44 -334.8,0 L 54,36 Z" /><text
       id="text16"
       style="font-variant:normal;font-weight:normal;font-size:10px;font-family:'DejaVu Sans';-inkscape-font-specification:DejaVuSans;writing-mode:lr-tb;fill:#000000;fill-opacity:1;fill-rule:nonzero;stroke:none"
       transform="matrix(1,0,0,-1,219.43906,24.40625)"><tspan
         id="tspan18"
         y="0"
         x="0">t</tspan></text>
<path
       id="path20"
       style="fill:#000000;fill-opacity:1;fill-rule:nonzero;stroke:#000000;stroke-width:0.80000001;stroke-linecap:butt;stroke-linejoin:round;stroke-miterlimit:10;stroke-dasharray:none;stroke-opacity:1"
       d="m 54,36 -3.5,0" /><text
       id="text22"
       style="font-variant:normal;font-weight:normal;font-size:10px;font-family:'DejaVu Sans';-inkscape-font-specification:DejaVuSans;writing-mode:lr-tb;fill:#000000;fill-opacity:1;fill-rule:nonzero;stroke:none"
       transform="matrix(1,0,0,-1,40.640625,32.203125)"><tspan
         id="tspan24"
         y="0"
         x="0">0</tspan></text>
<path
       id="path26"
       style="fill:#000000;fill-opacity:1;fill-rule:nonzero;stroke:#000000;stroke-width:0.80000001;stroke-linecap:butt;stroke-linejoin:round;stroke-miterlimit:10;stroke-dasharray:none;stroke-opacity:1"
       d="m 54,253.44 -3.5,0" /><text
       id="text28"
       style="font-variant:normal;font-weight:normal;font-size:10px;font-family:'DejaVu Sans';-inkscape-font-specification:DejaVuSans;writing-mode:lr-tb;fill:#000000;fill-opacity:1;fill-rule:nonzero;stroke:none"
       transform="matrix(1,0,0,-1,40.640625,249.64312)"><tspan
         id="tspan30"
         y="0"
         x="0">1</tspan></text>
<g
       id="g32"><g
         clip-path="url(#clipPath36)"
         id="g34"><path
           id="path40"
           style="fill:none;stroke:#ff0000;stroke-width:2;stroke-linecap:square;stroke-linejoin:round;stroke-miterlimit:10;stroke-dasharray:none;stroke-opacity:1"
           d="m 69.218182,36 3.07438,3.465923 3.07438,9.955802 3.07438,15.176144 3.07438,18.461264 3.074381,19.392247 3.07438,17.85039 3.07438,14.0323 3.07438,8.42483 3.07438,1.74306 3.07438,-5.16097 3.074377,-11.40691 3.07438,-16.19825 3.07438,-18.924047 3.07438,-19.236689 3.07438,-17.096321 3.07438,-12.775876 3.07439,-6.826284 3.07438,-0.0062 3.07438,6.814633 3.07437,12.766504 3.07438,17.090424 3.07438,19.235017 3.07439,18.926809 3.07438,16.20511 3.07438,11.41697 3.07438,5.17298 3.07438,-1.73067 3.07438,-8.41363 3.07438,-14.02369 3.07438,-17.84549 3.07438,-19.391689 3.07438,-18.465106 3.07438,-15.183901 3.07438,-9.966483 3.07438,-3.478167 3.07438,3.453677 3.07438,9.945117 3.07438,15.168382 3.07438,18.457413 3.07438,19.392807 3.07438,17.85527 3.07438,14.04089 3.07438,8.43604 3.07438,1.75546 3.07438,-5.14898 3.07438,-11.39683 3.07438,-16.19139 3.07438,-18.92127 3.07438,-19.238352 3.07438,-17.102213 3.07438,-12.785242 3.07438,-6.837933 3.07438,-0.01867 3.07438,6.802979 3.07438,12.757126 3.07438,17.084519 3.07438,19.233339 3.07438,18.929567 3.07438,16.21196 3.07438,11.42704 3.07438,5.18496 3.07438,-1.71827 3.07438,-8.4024 3.07438,-14.01509 3.07438,-17.84059 3.07438,-19.391123 3.07438,-18.468941 3.07438,-15.191651 3.07438,-9.977161 3.07438,-3.490409 3.07438,3.44143 3.07438,9.934427 3.07438,15.160613 3.07438,18.453556 3.07438,19.393349 3.07438,17.86016 3.07438,14.04947 3.07438,8.44726 3.07438,1.76785 3.07438,-5.13698 3.07438,-11.38676 3.07438,-16.18453 3.07439,-18.91848 3.07438,-19.240008 3.07438,-17.108096 3.07438,-12.794605 3.07438,-6.849578 3.07438,-0.03111 3.07438,6.791322 3.07438,12.747745 3.07438,17.078607 3.07438,19.231651 3.07438,18.932322 3.07438,16.2188 3.07438,11.43709 3.07438,5.19696 3.07438,-1.70588 3.07438,-8.39118 3.07438,-14.00647" /></g></g><g
       id="g42"><g
         clip-path="url(#clipPath46)"
         id="g44"><path
           id="path50"
           style="fill:none;stroke:#000000;stroke-width:1.5;stroke-linecap:butt;stroke-linejoin:round;stroke-miterlimit:10;stroke-dasharray:5.55, 2.4;stroke-dashoffset:0;stroke-opacity:1"
           d="m 54,144.72 334.8,0" /></g></g><g
       id="g52"><g
         clip-path="url(#clipPath56)"
         id="g54"><path
           id="path60"
           style="fill:none;stroke:#000000;stroke-width:1.5;stroke-linecap:butt;stroke-linejoin:round;stroke-miterlimit:10;stroke-dasharray:5.55, 2.4;stroke-dashoffset:0;stroke-opacity:1"
           d="m 123.02258,36 0,217.44" /></g></g><g
       id="g62"><path
         id="path64"
         style="fill:none;stroke:#000000;stroke-width:0.80000001;stroke-linecap:square;stroke-linejoin:miter;stroke-miterlimit:10;stroke-dasharray:none;stroke-opacity:1"
         d="m 54,36 0,217.44" /><path
         id="path66"
         style="fill:none;stroke:#000000;stroke-width:0.80000001;stroke-linecap:square;stroke-linejoin:miter;stroke-miterlimit:10;stroke-dasharray:none;stroke-opacity:1"
         d="m 388.8,36 0,217.44" /><path
         id="path68"
         style="fill:none;stroke:#000000;stroke-width:0.80000001;stroke-linecap:square;stroke-linejoin:miter;stroke-miterlimit:10;stroke-dasharray:none;stroke-opacity:1"
         d="m 54,36 334.8,0" /><path
         id="path70"
         style="fill:none;stroke:#000000;stroke-width:0.80000001;stroke-linecap:square;stroke-linejoin:miter;stroke-miterlimit:10;stroke-dasharray:none;stroke-opacity:1"
         d="m 54,253.44 334.8,0" /><g
         transform="translate(145.30909,166.464)"
         id="g72"><text
           id="text74"
           style="font-variant:normal;font-weight:normal;font-size:12px;font-family:'DejaVu Sans';-inkscape-font-specification:DejaVuSans;writing-mode:lr-tb;fill:#000000;fill-opacity:1;fill-rule:nonzero;stroke:none"
           transform="matrix(1,0,0,-1,0,0.171875)"><tspan
             id="tspan76"
             y="0"
             x="0 6.2519531 9.5859375">sin</tspan></text>
<text
           id="text78"
           style="font-variant:normal;font-weight:normal;font-size:8.39999962px;font-family:'DejaVu Sans';-inkscape-font-specification:DejaVuSans;writing-mode:lr-tb;fill:#000000;fill-opacity:1;fill-rule:nonzero;stroke:none"
           transform="matrix(1,0,0,-1,17.30625,4.765625)"><tspan
             id="tspan80"
             y="0"
             x="0">2</tspan></text>
<text
           id="text82"
           style="font-variant:normal;font-weight:normal;font-size:12px;font-family:'DejaVu Sans';-inkscape-font-specification:DejaVuSans;writing-mode:lr-tb;fill:#000000;fill-opacity:1;fill-rule:nonzero;stroke:none"
           transform="matrix(1,0,0,-1,22.978711,0.171875)"><tspan
             id="tspan84"
             y="0"
             x="0 12.023438">()</tspan></text>
<g
           transform="matrix(0.012,0,0,0.012,27.660352,0.171875)"
           id="g86"><g
             id="g88"><g
               clip-path="url(#clipPath92)"
               id="g90"><path
                 id="path96"
                 style="fill:#000000;fill-opacity:1;fill-rule:nonzero;stroke:none"
                 d="m 455,347 -310,0 c -14,-98 -14,-167 0,-208 18,-51 51,-76 100,-76 48,0 91,25 129,76 32,45 59,114 81,208 m 15,83 c 8,92 7,154 -4,187 -18,51 -51,77 -98,77 -50,0 -94,-26 -130,-76 -29,-41 -54,-104 -76,-188 l 308,0 m -88,338 c 78,0 132,-35 164,-104 31,-69 35,-164 11,-286 C 533,256 493,161 435,93 377,24 308,-10 230,-10 152,-10 97,24 66,93 35,161 31,256 55,378 c 24,122 64,217 122,286 58,69 126,104 205,104" /></g></g></g></g><g
         transform="translate(130.09091,231.696)"
         id="g98"><text
           id="text100"
           style="font-style:italic;font-variant:normal;font-size:8.39999962px;font-family:'DejaVu Sans';-inkscape-font-specification:DejaVuSans-Oblique;writing-mode:lr-tb;fill:#000000;fill-opacity:1;fill-rule:nonzero;stroke:none"
           transform="matrix(1,0,0,-1,15,5.6125)"><tspan
             id="tspan102"
             y="0"
             x="0">h</tspan><tspan
             id="tspan104"
             y="9.875"
             x="-15">E</tspan></text>
<text
           id="text106"
           style="font-variant:normal;font-weight:normal;font-size:5.88000011px;font-family:'DejaVu Sans';-inkscape-font-specification:DejaVuSans;writing-mode:lr-tb;fill:#000000;fill-opacity:1;fill-rule:nonzero;stroke:none"
           transform="matrix(1,0,0,-1,6.4529883,-5.640625)"><tspan
             id="tspan108"
             y="0"
             x="0">+</tspan></text>
<text
           id="text110"
           style="font-style:italic;font-variant:normal;font-size:8.39999962px;font-family:'DejaVu Sans';-inkscape-font-specification:DejaVuSans-Oblique;writing-mode:lr-tb;fill:#000000;fill-opacity:1;fill-rule:nonzero;stroke:none"
           transform="matrix(1,0,0,-1,23.066367,-4.2625)"><tspan
             id="tspan112"
             y="0"
             x="0">E</tspan></text>
<g
           transform="matrix(0.0084,0,0,0.0084,14.391563,-4.2625)"
           id="g114"><g
             id="g116"><g
               clip-path="url(#clipPath120)"
               id="g118"><path
                 id="path124"
                 style="fill:#000000;fill-opacity:1;fill-rule:nonzero;stroke:none"
                 d="m 106,355 626,0 0,-83 -626,0 0,83" /></g></g></g><g
           transform="matrix(0.00588,0,0,0.00588,29.519355,-5.640625)"
           id="g126"><g
             id="g128"><g
               clip-path="url(#clipPath132)"
               id="g130"><path
                 id="path136"
                 style="fill:#000000;fill-opacity:1;fill-rule:nonzero;stroke:none"
                 d="m 106,355 626,0 0,-83 -626,0 0,83" /></g></g></g><g
           id="g138"><path
             id="path140"
             style="fill:#000000;fill-opacity:1;fill-rule:nonzero;stroke:none"
             d="m 0,2.6125 35.821406,0 0,0.75 L 0,3.3625 0,2.6125 Z" /></g></g></g></g></svg>